<svg xmlns="http://www.w3.org/2000/svg" width="143" height="44" viewBox="0 0 143 44" fill="none"><path d="M49.4 28.832V36H45.816V14.24H49.4V23.84L59.096 13.76L61.688 15.84L54.104 23.872L63.192 36H58.776L51.64 26.432L49.4 28.832ZM70.276 23.328C68.868 23.328 67.3747 23.68 65.796 24.384L64.804 21.44C65.3587 21.0773 66.212 20.7573 67.364 20.48C68.5373 20.2027 69.4867 20.064 70.212 20.064C71.4067 20.064 72.4947 20.3093 73.476 20.8C74.4787 21.2907 75.268 21.9627 75.844 22.816C76.42 23.648 76.708 24.5867 76.708 25.632V36H74.308L73.764 34.432C73.1667 35.008 72.484 35.4773 71.716 35.84C70.948 36.2027 70.18 36.384 69.412 36.384C67.62 36.384 66.2547 35.936 65.316 35.04C64.3987 34.144 63.94 32.9493 63.94 31.456C63.94 29.8987 64.4627 28.6933 65.508 27.84C66.5747 26.9867 67.972 26.56 69.7 26.56H73.092C73.0493 24.4053 72.1107 23.328 70.276 23.328ZM69.636 28.96C68.8467 28.96 68.2173 29.2053 67.748 29.696C67.3 30.1653 67.076 30.752 67.076 31.456C67.076 32.0107 67.2787 32.5013 67.684 32.928C68.0893 33.3333 68.644 33.536 69.348 33.536C70.0093 33.536 70.6707 33.376 71.332 33.056C71.9933 32.736 72.5907 32.2987 73.124 31.744V28.96H69.636ZM80.2535 23.36H77.8855V20.608H80.2535V18.976C80.2535 17.2907 80.7335 15.968 81.6935 15.008C82.6748 14.0267 84.0188 13.536 85.7255 13.536C86.1948 13.536 86.7068 13.6213 87.2615 13.792C87.8375 13.9413 88.2748 14.1333 88.5735 14.368L87.5815 17.056C86.8988 16.8 86.3655 16.672 85.9815 16.672C85.2562 16.672 84.7228 16.9173 84.3815 17.408C84.0402 17.8987 83.8695 18.5707 83.8695 19.424V20.608H86.7495L87.9015 23.36H83.8695V43.36H80.2535V23.36ZM96.0425 20.064C98.3252 20.064 100.053 20.8213 101.227 22.336C102.4 23.8507 102.987 25.7813 102.987 28.128V29.184H92.2345C92.5545 31.9573 94.2078 33.344 97.1945 33.344C98.0265 33.344 98.7625 33.2373 99.4025 33.024C100.064 32.7893 100.853 32.4373 101.771 31.968L102.859 34.592C101.131 35.7867 99.2212 36.384 97.1305 36.384C94.3145 36.384 92.1598 35.6587 90.6665 34.208C89.1945 32.736 88.4585 30.7413 88.4585 28.224C88.4585 26.6027 88.7572 25.184 89.3545 23.968C89.9732 22.7307 90.8478 21.7707 91.9785 21.088C93.1305 20.4053 94.4852 20.064 96.0425 20.064ZM95.9465 23.136C94.9225 23.136 94.0905 23.456 93.4505 24.096C92.8318 24.736 92.4478 25.632 92.2985 26.784H99.5305C99.3385 25.5893 98.9438 24.6827 98.3465 24.064C97.7492 23.4453 96.9492 23.136 95.9465 23.136ZM108.06 33.888C108.06 34.4853 107.857 34.9867 107.452 35.392C107.046 35.7973 106.545 36 105.948 36C105.35 36 104.838 35.7973 104.412 35.392C104.006 34.9867 103.804 34.4853 103.804 33.888C103.804 33.2907 104.006 32.7893 104.412 32.384C104.838 31.9573 105.35 31.744 105.948 31.744C106.545 31.744 107.046 31.9573 107.452 32.384C107.857 32.7893 108.06 33.2907 108.06 33.888Z" fill="white"></path><path d="M0 24.0561C0.0106075 24.0789 0.0179649 24.1029 0.0218654 24.1276C0.0392568 24.3783 0.0844753 24.6263 0.156712 24.8673C0.342375 25.567 0.68614 26.2167 1.16256 26.7684C1.80558 27.5174 2.69487 28.0229 3.67719 28.1979C4.15732 28.2888 4.64842 28.3105 5.13494 28.2622C5.44681 28.2389 5.7524 28.164 6.03875 28.0406C6.2947 27.9311 6.51835 27.76 6.68906 27.5433C6.85977 27.3265 6.97202 27.0711 7.01545 26.8006C7.06832 26.4943 7.06832 26.1814 7.01545 25.8751C6.99074 25.701 6.95298 25.5291 6.90247 25.3605C6.90247 25.3355 6.8806 25.3104 6.86602 25.2711L6.82229 25.3319C6.70626 25.5031 6.54841 25.6431 6.3631 25.7393C6.17792 25.8367 5.97694 25.902 5.76907 25.9322C5.43572 25.9823 5.09656 25.9823 4.76322 25.9322C4.55549 25.9001 4.3514 25.8536 4.15096 25.8036C3.80164 25.7122 3.48181 25.5351 3.22164 25.289C2.95669 25.0386 2.73839 24.7447 2.57658 24.4206C2.36986 24.0196 2.24015 23.5848 2.19392 23.1377C2.14374 22.7287 2.18605 22.3139 2.31783 21.9227C2.45365 21.5075 2.73683 21.1537 3.11595 20.9257C3.32899 20.801 3.56377 20.7162 3.80838 20.6756C4.30929 20.5835 4.82542 20.6104 5.31352 20.7542C5.77023 20.8889 6.1793 21.1464 6.4943 21.4975C6.6904 21.7086 6.86269 21.9398 7.00816 22.1872C7.22954 22.5599 7.41734 22.9509 7.56939 23.3557C7.76619 23.8703 7.95206 24.3849 8.13428 24.9031C8.51493 25.9965 8.97782 27.0608 9.51914 28.0871C9.99248 28.9884 10.5552 29.8419 11.1992 30.635C11.9276 31.536 12.7872 32.3271 13.7503 32.9828C14.8774 33.7467 16.1466 34.2858 17.4858 34.5695C17.9105 34.6596 18.3399 34.7264 18.7722 34.7696C19.4987 34.8409 20.2294 34.8624 20.9589 34.8339C21.4108 34.8339 21.859 34.7767 22.3073 34.7196C23.1501 34.614 23.9818 34.4358 24.7928 34.1871C26.4049 33.7004 27.9059 32.9129 29.2134 31.8679C30.5681 30.7837 31.6766 29.4338 32.4678 27.9048C32.996 26.885 33.3927 25.8046 33.6486 24.6887C33.7507 24.2455 33.8345 23.8024 33.8964 23.3557C33.9475 22.9984 33.9839 22.641 34.0131 22.2837C34.0519 21.7453 34.0665 21.2057 34.0568 20.6649C34.0568 20.2325 34.0276 19.8001 33.9876 19.3712V19.1961C33.9548 19.1961 33.9548 19.2211 33.9511 19.239C33.9256 19.4641 33.9001 19.6893 33.8709 19.9144C33.8272 20.2718 33.7653 20.6077 33.696 20.9543C33.533 21.7794 33.3164 22.5935 33.0473 23.3915C32.6492 24.5952 32.1086 25.749 31.4365 26.8292C30.8604 27.7614 30.1579 28.6125 29.3483 29.3593C28.0693 30.5375 26.5112 31.3849 24.8146 31.825C24.2949 31.9625 23.7666 32.0664 23.233 32.1359C22.4237 32.2407 21.6069 32.2777 20.7912 32.2467C20.3466 32.2467 19.8984 32.2002 19.4537 32.1502C18.5402 32.0566 17.641 31.8575 16.7751 31.557C15.3586 31.0543 14.0941 30.21 13.0979 29.102C12.5787 28.5178 12.1129 27.89 11.7058 27.2259C11.3231 26.6041 10.9769 25.9644 10.6453 25.3176C10.3136 24.6708 10.0184 24.099 9.70136 23.4951C9.42409 22.9608 9.115 22.4429 8.77569 21.9442C8.46664 21.4811 8.10739 21.0522 7.70423 20.6649C7.16985 20.1496 6.52843 19.7535 5.82373 19.5035C5.40944 19.3585 4.97865 19.2637 4.54091 19.2211C3.8128 19.1358 3.07492 19.2543 2.4126 19.5629C1.75027 19.8715 1.19054 20.3576 0.798122 20.965C0.450629 21.4805 0.211504 22.0588 0.0947521 22.666C0.0650036 22.7915 0.0479145 22.9196 0.0437309 23.0484C0.0374103 23.0764 0.0288839 23.1039 0.018223 23.1306L0 24.0561Z" fill="#B98D58"></path><path d="M37.9997 33.5046C37.9712 33.4786 37.9542 33.4427 37.9523 33.4046C37.889 33.0046 37.6946 32.6358 37.3984 32.3539C37.2542 32.2067 37.0955 32.0738 36.9246 31.9573C36.5634 31.7048 36.1805 31.4836 35.7803 31.2962L35.5944 31.214C35.5944 31.214 35.5944 31.2426 35.5944 31.2461L35.6928 31.3283C36.0121 31.589 36.3006 31.8838 36.5529 32.2074C36.6981 32.385 36.8205 32.5794 36.9173 32.7863C36.9709 32.9003 37.0101 33.0204 37.0339 33.1437C37.0777 33.4233 37.0358 33.7093 36.9137 33.9656C36.8234 34.1737 36.7004 34.3666 36.5492 34.5374C36.306 34.8189 36.0281 35.0697 35.722 35.2842C35.2629 35.6047 34.775 35.8834 34.2642 36.1169C33.6099 36.4239 32.9354 36.6877 32.2452 36.9066C31.3614 37.1928 30.4624 37.4314 29.552 37.6213C29.0345 37.7285 28.517 37.8286 27.9959 37.9108C27.5622 37.9822 27.1249 38.0394 26.6912 38.0966C26.3595 38.1431 26.0315 38.1788 25.6999 38.2145C25.4703 38.2395 25.2407 38.2538 25.0111 38.2753L24.1547 38.336L23.5679 38.3682L22.1976 38.4075C21.3631 38.4254 20.5322 38.4075 19.6976 38.3896C19.2821 38.3896 18.863 38.3646 18.4439 38.3396C18.0248 38.3146 17.5073 38.2824 17.0408 38.2503C16.6764 38.2252 16.3411 38.2002 15.9949 38.1645C15.6487 38.1288 15.266 38.093 14.9234 38.0501C14.5809 38.0073 14.2128 37.968 13.8593 37.9143C13.3637 37.8393 12.8717 37.7571 12.3797 37.6749C11.7674 37.5713 11.1588 37.4391 10.5575 37.2926C9.57833 37.0627 8.61833 36.7604 7.6857 36.3885C7.24417 36.2098 6.81663 35.9996 6.40652 35.7595C6.1873 35.6289 5.97783 35.4832 5.77968 35.3235C5.60655 35.1865 5.45112 35.0293 5.31685 34.8554C5.19575 34.7026 5.10996 34.5258 5.06539 34.3372C5.02308 34.1061 5.03808 33.8683 5.10912 33.644C5.20086 33.355 5.3578 33.0899 5.56831 32.8685C5.74788 32.6704 5.95098 32.494 6.17328 32.3432C6.56411 32.0739 6.98169 31.8441 7.41966 31.6571C8.02956 31.3958 8.65806 31.1784 9.30016 31.0067C9.599 30.9245 9.8942 30.8566 10.193 30.7816C10.2298 30.7728 10.2645 30.757 10.2951 30.7351C10.1165 30.7351 9.93064 30.753 9.75571 30.7673C9.58078 30.7816 9.435 30.7923 9.27101 30.803C8.87377 30.8352 8.47289 30.8781 8.07565 30.9281C7.61281 30.9853 7.15726 31.0639 6.70171 31.1604C6.09884 31.2879 5.5113 31.4771 4.94876 31.725C4.56369 31.8884 4.20515 32.1063 3.8846 32.3718C3.33983 32.8199 2.98082 33.4477 2.87511 34.1371C2.83685 34.3651 2.81857 34.5958 2.82044 34.8268C2.81949 35.2825 2.9455 35.7298 3.18488 36.1204C3.40082 36.4778 3.67682 36.7968 4.00122 37.0639C4.35311 37.3562 4.73545 37.6113 5.14192 37.825C5.73358 38.1342 6.35038 38.3948 6.98598 38.604C7.75379 38.8587 8.53627 39.0687 9.32932 39.233C9.8614 39.3473 10.4008 39.4438 10.9401 39.5296C11.3264 39.5868 11.7164 39.6404 12.1027 39.6904C12.489 39.7404 12.9336 39.7869 13.3491 39.8298C13.7135 39.8655 14.0379 39.8905 14.3841 39.9155C14.7303 39.9405 15.0146 39.9584 15.328 39.9799C15.5284 39.9799 15.7289 40.0013 15.9293 40.0084L17.0044 40.0477C17.0554 40.0442 17.1065 40.0442 17.1575 40.0477H20.3864C20.4562 40.0281 20.529 40.0208 20.6014 40.0263C21.108 40.0049 21.6145 39.9906 22.1211 39.9656C22.5293 39.9405 22.9302 39.9084 23.3347 39.8726C23.7392 39.8369 24.111 39.8083 24.4936 39.7619C24.9856 39.7047 25.4776 39.6404 25.9514 39.5725C26.5527 39.4903 27.1504 39.3866 27.7444 39.2723C28.7867 39.0722 29.8181 38.8327 30.8385 38.5361C31.8923 38.2387 32.9237 37.8697 33.9253 37.4319C34.602 37.1397 35.2529 36.7931 35.8714 36.3956C36.3163 36.1146 36.7282 35.7862 37.0995 35.4165C37.2894 35.2239 37.4591 35.0132 37.6061 34.7875C37.7815 34.5233 37.8993 34.2265 37.9523 33.9156C37.9524 33.8965 37.9567 33.8777 37.9649 33.8605C37.973 33.8432 37.9849 33.8279 37.9997 33.8155V33.5046Z" fill="#B98D58"></path><path d="M31.7569 15.3832L31.8443 15.4618C32.0518 15.6384 32.2411 15.8347 32.4092 16.0479C32.4992 16.1684 32.5785 16.2963 32.6461 16.4302C32.7023 16.5406 32.7337 16.6616 32.7381 16.7849C32.7425 16.9082 32.7198 17.031 32.6716 17.1449C32.6103 17.3015 32.5201 17.4457 32.4056 17.5702C32.2793 17.7037 32.1388 17.8235 31.9865 17.9275C31.6687 18.1473 31.3278 18.333 30.9697 18.4814C30.427 18.7059 29.8678 18.8898 29.2969 19.0318C28.6964 19.1891 28.0882 19.3167 27.4747 19.4141C27.0337 19.482 26.5891 19.5499 26.1445 19.6035C25.7801 19.65 25.4156 19.6821 25.0512 19.7143C24.6867 19.7465 24.2421 19.7751 23.8376 19.8036C23.6554 19.8036 23.4732 19.8251 23.2873 19.8322C22.3799 19.868 21.4651 19.8787 20.5577 19.8572C20.0985 19.8572 19.6393 19.8179 19.1764 19.7893C18.812 19.7679 18.4476 19.7429 18.0831 19.7072C17.7187 19.6714 17.2959 19.6178 16.9023 19.5678C16.2208 19.4785 15.543 19.357 14.8761 19.2104C14.0583 19.0406 13.2572 18.8015 12.4817 18.4957C12.1614 18.3661 11.8509 18.2144 11.5524 18.0419C11.347 17.9233 11.1519 17.7882 10.9693 17.6381C10.808 17.5063 10.6658 17.3536 10.5465 17.1842C10.4343 17.0248 10.3596 16.843 10.3279 16.6518C10.2976 16.4609 10.3215 16.2656 10.3971 16.0872C10.4548 15.9467 10.5334 15.8155 10.6303 15.6977C10.7948 15.499 10.9875 15.3245 11.2025 15.1795C11.5555 14.9364 11.9343 14.7315 12.3323 14.5684C12.9172 14.3236 13.5202 14.123 14.1362 13.9681L14.8177 13.8037C14.8454 13.7923 14.8752 13.7864 14.9052 13.7864C14.9352 13.7864 14.965 13.7923 14.9927 13.8037C15.5584 14.0983 16.091 14.4504 16.5816 14.8543C17.0129 15.2089 17.3822 15.6301 17.6749 16.1015C17.6749 16.1301 17.7041 16.1622 17.7369 16.1765C17.7697 16.1908 17.7551 16.1193 17.7551 16.0943C17.7403 15.8352 17.69 15.5792 17.6057 15.3332C17.4432 14.8421 17.1967 14.3817 16.8768 13.9716C16.4882 13.4702 16.0293 13.0251 15.5138 12.6494C15.3462 12.5244 15.1712 12.4029 14.9927 12.2921C14.0169 11.6512 13.0956 10.9342 12.2375 10.148C11.7268 9.68416 11.2574 9.17846 10.8344 8.63636C10.5759 8.3033 10.3547 7.94386 10.1748 7.5643C10.0551 7.31336 9.97046 7.04771 9.92333 6.77454C9.84317 6.35383 9.93056 5.91899 10.1675 5.55954C10.18 5.54265 10.191 5.52471 10.2003 5.50594C10.2003 5.50594 10.1748 5.50594 10.1711 5.50594C9.60909 5.9367 9.17805 6.51014 8.92477 7.16406C8.7626 7.58548 8.70756 8.0393 8.76441 8.48626C8.81768 8.87726 8.94106 9.25593 9.12885 9.60478C9.33528 9.99154 9.58991 10.3516 9.88689 10.6768C10.3214 11.1497 10.8176 11.5643 11.3629 11.9097C11.8638 12.2297 12.3848 12.5186 12.9227 12.7745L14.5517 13.5678C14.6288 13.6014 14.7031 13.6409 14.774 13.6858C14.774 13.7215 14.7303 13.7143 14.7084 13.7215H14.6465C13.6938 13.8344 12.7474 13.9942 11.8111 14.2003C11.0513 14.3606 10.3056 14.5793 9.58076 14.8543C9.21012 14.9932 8.85176 15.1617 8.50931 15.3582C8.27231 15.4938 8.05112 15.6543 7.84967 15.837C7.70812 15.9664 7.58548 16.1143 7.48524 16.2766C7.3537 16.4717 7.27731 16.6976 7.26386 16.9311C7.25042 17.1647 7.3004 17.3975 7.4087 17.6059C7.5029 17.7978 7.62573 17.9748 7.77314 18.1312C7.97405 18.3438 8.19903 18.5332 8.44371 18.6958C8.87084 18.9767 9.32489 19.2161 9.79942 19.4106C10.4836 19.7002 11.1889 19.9391 11.9095 20.1253C12.6384 20.3254 13.3673 20.4826 14.118 20.6113C14.6246 20.7006 15.1312 20.7792 15.6377 20.8364C16.0277 20.8829 16.4176 20.9222 16.8076 20.9615C17.285 21.0115 17.7624 21.0365 18.2398 21.0651C19.3914 21.1294 20.5431 21.1294 21.6983 21.1008C22.2304 21.1008 22.7625 21.0615 23.2946 21.0258C23.7538 20.9972 24.2057 20.9579 24.6612 20.9114C25.1168 20.865 25.4666 20.8293 25.8712 20.7756C26.2757 20.722 26.7057 20.6541 27.1212 20.5863C27.6788 20.4969 28.2145 20.3826 28.7758 20.2539C29.5986 20.0655 30.4052 19.8146 31.1883 19.5035C31.6568 19.32 32.105 19.0901 32.5258 18.8173C32.7399 18.678 32.939 18.5175 33.1199 18.3385C33.2518 18.207 33.3658 18.0593 33.4588 17.899C33.5884 17.6755 33.6468 17.4191 33.6264 17.1628C33.6092 16.9967 33.5597 16.8354 33.4807 16.6875C33.3841 16.5089 33.2613 16.3452 33.1162 16.2015C32.9567 16.0442 32.7835 15.9007 32.5987 15.7727C32.3661 15.6113 32.1226 15.4656 31.8698 15.3367L31.8042 15.3081L31.7569 15.3832Z" fill="#B98D58"></path><path d="M22.4203 16.8555C22.4203 16.7804 22.4459 16.7054 22.4495 16.6303C22.4678 16.3382 22.4568 16.0449 22.4167 15.7548C22.2767 14.7399 21.919 13.7656 21.3671 12.896C20.9383 12.1995 20.4283 11.5543 19.8474 10.9734C19.6287 10.7519 19.3991 10.5375 19.1695 10.3266C18.324 9.5476 17.5077 8.74713 16.7351 7.9002C16.0658 7.17738 15.4473 6.41089 14.8837 5.606C14.5117 5.07902 14.1862 4.52191 13.9107 3.94073C13.7207 3.53907 13.5753 3.11855 13.477 2.68642C13.4043 2.37488 13.3749 2.05513 13.3895 1.73586C13.4071 1.16248 13.6201 0.611407 13.9945 0.170651L14.0601 0.0920333L14.1184 0.0241353C14.0966 -0.000879419 14.082 0.0241353 14.0674 0.0241353C13.8768 0.158856 13.6954 0.305687 13.5244 0.463681C12.8974 1.02585 12.4004 1.71306 12.0666 2.47915C11.8749 2.9357 11.7521 3.41725 11.7022 3.90857C11.6265 4.62817 11.6883 5.35529 11.8844 6.05269C12.1523 7.07833 12.6406 8.03598 13.3167 8.86148C13.7121 9.33972 14.1566 9.7768 14.6432 10.1658C15.1289 10.5541 15.6389 10.9121 16.1702 11.2379C16.7132 11.5952 17.2635 11.9133 17.8065 12.2456C18.3496 12.578 18.9254 12.9389 19.4611 13.3177C19.9376 13.6565 20.386 14.0317 20.8022 14.4398C21.476 15.0987 22.0077 15.8838 22.3657 16.7483C22.3839 16.8054 22.3875 16.8412 22.4203 16.8555Z" fill="#B98D58"></path><path d="M25.3323 13.9752C25.3323 13.8751 25.3323 13.775 25.3323 13.675C25.2991 13.0804 25.1763 12.494 24.9678 11.9347C24.6745 11.1496 24.229 10.4276 23.6559 9.80843C23.4482 9.58099 23.2254 9.3673 22.9889 9.16877C22.2786 8.56513 21.6113 7.91441 20.9918 7.22119C20.6177 6.80199 20.2755 6.35649 19.9678 5.88826C19.7237 5.51499 19.5209 5.11728 19.3628 4.70185C19.2629 4.43833 19.1979 4.16329 19.1696 3.88351C19.143 3.63483 19.1673 3.38343 19.2411 3.1441C19.315 2.90476 19.4369 2.68231 19.5997 2.48983L19.6871 2.3862C19.658 2.3862 19.6434 2.3862 19.6252 2.3862C19.0631 2.70018 18.5799 3.13367 18.2112 3.65481C17.9781 3.98654 17.8191 4.36283 17.7447 4.75903C17.6944 5.0278 17.6858 5.3025 17.7192 5.57379C17.7812 6.05293 17.9385 6.51549 18.182 6.93531C18.4784 7.45834 18.8462 7.93925 19.2753 8.36472C19.7034 8.79877 20.1679 9.19683 20.6638 9.55471C21.1522 9.91206 21.6515 10.2694 22.1471 10.6089C22.6427 10.9484 23.091 11.2843 23.532 11.681C23.9563 12.0386 24.3389 12.4413 24.6727 12.8817C24.9087 13.2003 25.1091 13.543 25.2703 13.9037C25.2815 13.9344 25.2949 13.9642 25.3104 13.993L25.3323 13.9752Z" fill="#B98D58"></path></svg>